<svg width="40" height="40" viewBox="0 0 40 40" fill="none" xmlns="http://www.w3.org/2000/svg">
<path d="M15.4359 16.1867C15.4359 15.1935 14.6059 14.4016 13.6017 14.4016C13.5568 14.4016 13.512 14.4033 13.4671 14.4067C12.8632 14.4477 12.4266 14.8317 12.3542 14.8948C12.3507 14.8982 12.3473 14.9016 12.3438 14.9051C10.3146 16.6321 8.4735 18.7141 6.87568 21.1033C4.28915 24.9721 2.32035 29.6584 1.02104 35.0324C0.979632 35.2167 0.993436 35.4129 1.11595 35.6194C1.24191 35.8327 1.50073 36 1.78372 36H3.12443H3.89056C4.26499 36 4.55833 35.744 4.65323 35.4505C5.85073 30.6635 7.61765 26.5029 9.90222 23.0847C11.3534 20.919 13.0168 19.0435 14.8475 17.5093C15.1995 17.1816 15.4359 16.7038 15.4359 16.1867Z" fill="#F1F1F1"/>
<path d="M37.9865 35.0545V35.0511L36.9909 29.9962C36.9253 29.6669 36.6648 29.4382 36.3266 29.416C36.3076 29.4143 36.2903 29.4143 36.2713 29.4143C35.9556 29.4143 35.6812 29.6276 35.576 29.9297C34.8737 31.952 34.073 33.7097 33.457 34.86C33.4053 34.9607 33.3777 35.0699 33.3759 35.1893C33.3656 35.6535 33.74 36.0085 34.2007 36.0017H37.2066C37.6466 36.0017 38.0037 35.6484 38.0037 35.2132C38.002 35.1586 37.9968 35.1057 37.9865 35.0545Z" fill="#F1F1F1"/>
<path d="M27.7647 35.9999H30.1597C30.3754 35.9999 30.6739 35.8531 30.8119 35.604C34.5821 29.0712 35.9971 24.0061 35.0549 20.4837C34.52 18.4853 33.3329 16.9051 31.6229 15.917C30.0389 15.0022 28.0735 14.6404 25.9356 14.8725C23.746 15.1097 21.4252 15.9664 19.2269 17.3505C16.8802 18.8284 14.7423 20.837 12.8736 23.3201C10.8271 26.0403 9.17754 29.2419 7.97487 32.8359C7.73675 33.5459 7.51416 34.2814 7.31227 35.0237C7.28984 35.1125 7.23635 35.4009 7.45031 35.6842C7.68326 35.9914 8.01801 35.9999 8.11981 35.9999H10.199C10.5976 35.9999 10.8685 35.7576 10.9738 35.406C12.085 31.5782 13.7018 28.235 15.7862 25.4669C18.8041 21.4565 22.709 18.8318 26.2945 18.4444C26.5844 18.4137 26.8674 18.3983 27.1418 18.3983C28.1512 18.3983 29.0433 18.6099 29.7559 19.0212C30.6325 19.5264 31.2209 20.3284 31.509 21.4053C31.8593 22.7125 31.6695 24.6256 30.893 26.9363C30.1027 29.2931 29.2003 31.0611 27.48 34.1329C27.4023 34.2711 27.2315 34.5561 27.0814 34.8036C26.9589 35.0033 26.9106 35.2968 27.0538 35.5733C27.1418 35.7405 27.3747 35.9999 27.7647 35.9999Z" fill="#F1F1F1"/>
<path d="M29.0328 22.7945C28.5565 21.1869 27.0623 20.6084 24.933 21.2091C23.8338 21.5333 22.7347 22.1119 21.6631 22.9276C21.2853 23.2211 20.8901 23.5573 20.4553 23.9567C18.5831 25.6718 15.8827 28.9638 13.6085 34.9163C13.4877 35.2337 13.5826 35.4795 13.6689 35.6211C13.7569 35.7645 13.9726 35.9983 14.3729 35.9983C14.3746 35.9983 14.3763 35.9983 14.3781 35.9983H16.5056C16.5073 35.9983 16.5073 35.9983 16.5091 35.9983C16.6833 35.9983 16.8369 35.9437 16.9629 35.8583C17.0888 35.773 17.1906 35.6467 17.251 35.5034C18.6194 32.2131 20.0705 29.9058 21.0489 28.5491C22.2636 26.863 23.4439 25.6957 24.2048 25.4277C24.3187 25.3868 24.4222 25.368 24.5154 25.368C24.6034 25.368 24.6828 25.3868 24.7518 25.4226C25.1073 25.6633 24.6414 26.9688 23.6302 28.776C23.6147 28.8051 22.0445 31.638 20.2241 34.8105C20.0998 35.0272 20.0809 35.2883 20.1792 35.5136C20.2776 35.7406 20.5278 35.9983 20.916 35.9983H23.1436C23.418 35.9983 23.6544 35.8617 23.8062 35.6518C28.0199 28.7863 29.6333 24.8202 29.0328 22.7945Z" fill="#F1F1F1"/>
<path d="M32.5339 12.7599C32.7358 12.7957 33.0481 12.7582 33.2707 12.5073C33.4916 12.2564 33.4881 11.9851 33.4553 11.8144L33.0377 9.69145C32.9894 9.48495 32.7755 9.17436 32.401 9.11633C31.1725 8.94056 29.9646 8.85693 28.7274 8.85693C28.3582 8.85693 27.9889 8.86547 27.6197 8.88083C23.9547 9.03783 20.4088 9.96962 17.1769 11.6523C17.1614 11.6608 17.1458 11.6694 17.1286 11.6779C17.1079 11.6898 17.0872 11.7001 17.0682 11.7137C16.8076 11.8707 16.5902 12.0892 16.4367 12.3503C16.2831 12.6131 16.1934 12.9186 16.1934 13.2428C16.1934 13.7633 16.4194 14.2292 16.7766 14.5569C17.0992 14.8521 17.5289 15.0347 18.0034 15.0347C18.2605 15.0347 18.5055 14.9801 18.7264 14.8846C18.7557 14.8726 18.7833 14.859 18.811 14.8453L18.8506 14.8248C21.6356 13.3572 24.6104 12.5943 27.775 12.4578C29.3521 12.3895 30.9464 12.4936 32.5201 12.7616C32.5253 12.7582 32.5287 12.7582 32.5339 12.7599Z" fill="#F1F1F1"/>
<path d="M32.2182 5.66055L31.8179 3.62973C31.7748 3.40616 31.6471 3.27476 31.5764 3.2082C31.5091 3.14506 31.3158 3.00171 31.0466 3C31.0173 3 30.9862 3 30.9569 3C27.6215 3 24.4673 3.34302 21.5822 4.01882C18.29 4.78849 15.203 6.11279 12.4043 7.7784C10.0973 9.1522 7.9007 10.8724 5.87324 12.8913C5.77661 12.9886 5.70931 13.1097 5.67998 13.2446L4.74821 17.4786C4.65848 17.8881 4.9035 18.1731 5.14162 18.2875C5.37974 18.4018 5.74727 18.4086 6.01473 18.0844C6.55308 17.4342 7.11732 16.8062 7.67984 16.2089C9.74354 14.021 11.9004 12.2701 14.2764 10.8554C19.1199 7.97295 24.7347 6.52066 31.4314 6.59404C31.6402 6.59404 31.9094 6.50871 32.0906 6.25102C32.2476 6.02746 32.2441 5.79025 32.2182 5.66055Z" fill="#F1F1F1"/>
<path d="M14.3212 3H8.53215C8.19223 3 7.89372 3.23892 7.82125 3.56658L6.93951 7.53778C6.79802 8.17604 7.52619 8.65217 8.06454 8.2716C10.5458 6.51554 13.1116 5.14175 14.5317 4.41304C14.9493 4.19801 15.0166 3.89936 15.0166 3.72188C15.0166 3.29012 14.6732 3.01024 14.3212 3Z" fill="#F1F1F1"/>
</svg>
